<svg width="466" height="409" viewBox="0 0 466 409" fill="none" xmlns="http://www.w3.org/2000/svg">
<path d="M421.548 44.3856C410.651 33.4844 397.714 24.8367 383.475 18.9367C369.236 13.0367 353.974 10 338.561 10C323.148 10 307.886 13.0367 293.647 18.9367C279.407 24.8367 266.47 33.4844 255.574 44.3856L232.961 66.9989L210.348 44.3856C188.338 22.3762 158.487 10.0114 127.361 10.0114C96.2348 10.0114 66.3836 22.3762 44.3742 44.3856C22.3648 66.395 10 96.2462 10 127.372C10 158.498 22.3648 188.35 44.3742 210.359L66.9875 232.972L232.961 398.946L398.934 232.972L421.548 210.359C432.449 199.463 441.096 186.526 446.996 172.287C452.896 158.047 455.933 142.785 455.933 127.372C455.933 111.959 452.896 96.6972 446.996 82.458C441.096 68.2189 432.449 55.2817 421.548 44.3856Z" fill="#F0F0F0" stroke="black" stroke-width="19" stroke-linecap="round" stroke-linejoin="round"/>
<circle cx="233" cy="204" r="38" fill="#F0F0F0" stroke="black" stroke-width="19"/>
<line x1="422" y1="213.5" x2="267" y2="213.5" stroke="black" stroke-width="19"/>
<line x1="195" y1="213.5" x2="40" y2="213.5" stroke="black" stroke-width="19"/>
</svg>
